<?xml version="1.0" encoding="UTF-8"?>
<svg version="1.1" xmlns="http://www.w3.org/2000/svg" width="1024" height="1024">
<defs>
<clipPath id="roundClip">
<circle cx="512" cy="512" r="512"/>
</clipPath>
</defs>
<g clip-path="url(#roundClip)">
<path d="M0 0 C337.92 0 675.84 0 1024 0 C1024 337.92 1024 675.84 1024 1024 C686.08 1024 348.16 1024 0 1024 C0 686.08 0 348.16 0 0 Z " fill="#FEFEFE" transform="translate(0,0)"/>
<path d="M0 0 C1.23952135 6.83973803 1.22499298 13.66563577 1.31640625 20.6015625 C1.33711926 21.94966627 1.35816333 23.29776499 1.3795166 24.64585876 C1.4350011 28.23345111 1.48449528 31.82110175 1.53242874 35.40880203 C1.56248901 37.62418997 1.59428822 39.83954611 1.62667847 42.05490112 C1.95223534 64.37014017 2.14975255 86.68226199 2 109 C1.33057373 109.21092285 0.66114746 109.4218457 -0.02856445 109.63916016 C-3.12704211 110.62279538 -6.21965983 111.62378629 -9.3125 112.625 C-10.8912793 113.12193359 -10.8912793 113.12193359 -12.50195312 113.62890625 C-37.84163686 121.89354156 -58.25792546 140.18647086 -70.3125 163.8125 C-83.23134805 190.28554929 -85.87182177 218.40734304 -76.8671875 246.5390625 C-66.66653832 274.84417511 -46.14011916 296.53354164 -19.12890625 309.2421875 C-13.59510652 311.69840157 -7.85088618 313.43820001 -2.03515625 315.08984375 C1 316 1 316 2 317 C2.09605864 318.63223456 2.12187821 320.2686439 2.12025452 321.90370178 C2.12162918 322.96525986 2.12300385 324.02681793 2.12442017 325.12054443 C2.12082489 326.29514221 2.11722961 327.46973999 2.11352539 328.67993164 C2.11367142 329.90902756 2.11381744 331.13812347 2.1139679 332.40446472 C2.11338892 335.78448672 2.10835964 339.16444829 2.10139394 342.54445958 C2.09515988 346.07321194 2.09455656 349.60196503 2.09336853 353.13072205 C2.09025537 359.81723119 2.08204218 366.50372406 2.07201904 373.19022602 C2.06085744 380.80074303 2.05534733 388.4112608 2.05032361 396.02178395 C2.03985956 411.68119874 2.02226041 427.34059727 2 443 C-19.51084149 444.23951498 -41.01591471 444.148161 -62.55388832 444.1343255 C-67.82657545 444.13175404 -73.09926103 444.13415281 -78.37194824 444.13571167 C-87.22746091 444.1375209 -96.08296518 444.13516136 -104.93847656 444.13037109 C-115.08576462 444.12494442 -125.23303252 444.1266846 -135.38032007 444.1321975 C-144.17783607 444.13678069 -152.9753461 444.13735366 -161.77286291 444.13475883 C-166.98931042 444.1332226 -172.20574857 444.13292708 -177.42219543 444.13629532 C-200.96837367 444.14948841 -224.47087562 443.94723965 -248 443 C-247.99762077 443.82367065 -247.99524155 444.64734131 -247.99279022 445.49597168 C-247.97348916 452.29960294 -247.95770702 459.10320867 -247.94824982 465.90686035 C-247.94302505 469.46461266 -247.93607493 473.02234014 -247.92456055 476.58007812 C-247.91349045 480.02309022 -247.90767361 483.46607865 -247.90512276 486.90910721 C-247.90244472 488.82616203 -247.89467386 490.74320767 -247.88670349 492.6602478 C-247.88627245 499.62197324 -248.09827607 506.5292903 -248.50709534 513.47769165 C-248.55427845 514.30172391 -248.60146157 515.12575617 -248.65007448 515.9747591 C-248.76528278 517.98325548 -248.8824375 519.99164005 -249 522 C-453.86394212 522.19673217 -453.86394212 522.19673217 -522.59996033 521.71085739 C-526.17596576 521.6875751 -529.75195826 521.66988331 -533.32800293 521.65383911 C-538.80735701 521.62858815 -544.28640316 521.5890231 -549.76556587 521.53687668 C-551.6933707 521.52051878 -553.62122199 521.50876397 -555.54908562 521.50236893 C-568.49091744 521.45414398 -580.25709456 520.48983498 -592 514.5 C-592.6707959 514.16033203 -593.3415918 513.82066406 -594.03271484 513.47070312 C-609.83070584 505.04009865 -619.97286084 490.52371238 -626.109375 474.015625 C-632.74110799 450.3666149 -625.92076682 423.32141672 -622.51617432 399.60986328 C-620.8584932 388.01687618 -619.24558596 376.41746398 -617.62751007 364.81889343 C-617.31140923 362.55468689 -616.99460349 360.29057985 -616.67767334 358.02648926 C-612.5251874 328.34071331 -608.68770503 298.61733164 -604.9309082 268.87915039 C-604.50102743 265.4780003 -604.07090633 262.07688069 -603.640625 258.67578125 C-603.53420433 257.83407694 -603.42778366 256.99237263 -603.31813812 256.12516212 C-601.61743992 242.68883027 -599.84496626 229.26293347 -598.04296875 215.83984375 C-595.98240111 200.48889098 -593.97816676 185.13190825 -592.03515625 169.765625 C-591.91369295 168.80533575 -591.79222965 167.8450465 -591.66708565 166.85565758 C-591.17446734 162.95995265 -590.68212587 159.06421285 -590.19011402 155.16843128 C-582.72846352 96.10041961 -582.72846352 96.10041961 -578.9375 69.5 C-578.8036087 68.55032349 -578.66971741 67.60064697 -578.5317688 66.62219238 C-575.47390076 45.03165264 -572.6842505 25.36507975 -554.37890625 10.93359375 C-551.95798376 9.21053004 -549.52042166 7.57317709 -547 6 C-546.25561172 5.48271143 -545.51122345 4.96542286 -544.74427795 4.43245888 C-541.49068378 2.734147 -539.38957233 2.61903705 -535.73217773 2.60800171 C-534.46398193 2.59690872 -533.19578613 2.58581573 -531.88916016 2.5743866 C-530.48730414 2.57715706 -529.08544864 2.5802031 -527.68359375 2.58349609 C-526.19782835 2.57610653 -524.71206902 2.56739859 -523.22631836 2.55747986 C-519.15687372 2.53402375 -515.08758176 2.528992 -511.01807785 2.52682066 C-506.63382962 2.52107287 -502.24967302 2.4976755 -497.86547852 2.47622681 C-489.42375282 2.43747577 -480.98205342 2.41348073 -472.54026127 2.39510214 C-462.51638237 2.37285176 -452.49257535 2.33599877 -442.46875 2.296875 C-441.57635903 2.29340297 -440.68396807 2.28993095 -439.76453495 2.28635371 C-436.11494745 2.27213256 -432.46536005 2.25789105 -428.81577349 2.24342948 C-424.11802517 2.22489471 -419.42027595 2.20717066 -414.72251892 2.19098473 C-382.94541287 2.08144846 -351.17061551 1.83736263 -319.394701 1.54544377 C-276.62804537 1.15308097 -233.86180145 0.86024264 -191.09375 0.68359375 C-189.77802254 0.67815583 -188.46229507 0.67271791 -187.10669708 0.66711521 C-171.24626796 0.60202148 -155.38582306 0.54143079 -139.52536964 0.48259091 C-129.99932956 0.44715569 -120.4732962 0.41021792 -110.94726562 0.37231445 C-110.26250158 0.36959018 -109.57773754 0.36686591 -108.87222308 0.36405908 C-106.11541275 0.35308679 -103.35860245 0.34210698 -100.60179219 0.33111694 C-79.7609442 0.24805815 -58.92009135 0.166073 -38.07922363 0.08810806 C-35.95278391 0.08012691 -33.82634448 0.07206621 -31.6999054 0.06391716 C-21.13322251 0.02351504 -10.56677862 -0.01358586 0 0 Z " fill="#00317D" transform="translate(800,248)"/>
<path d="M0 0 C2.3144989 1.71601963 2.3144989 1.71601963 4.5534668 3.99256897 C5.41128754 4.85218735 6.26910828 5.71180573 7.15292358 6.59747314 C8.08523396 7.55704506 9.01732506 8.51683006 9.94921875 9.47680664 C10.94415594 10.48298219 11.94024985 11.48801505 12.93740845 12.49198914 C15.07915666 14.65290654 17.21293968 16.82129013 19.3409729 18.99571419 C22.70622714 22.43341669 26.09106551 25.85137821 29.47924805 29.26646423 C37.89015985 37.75038581 46.27396637 46.260966 54.65441895 54.77496338 C61.17084553 61.39451443 67.69414143 68.00698965 74.23812962 74.59930891 C77.60666305 77.99432036 80.96042851 81.40308565 84.3037262 84.82294285 C86.38575341 86.94652656 88.48015355 89.05756609 90.57816696 91.16534615 C91.54853461 92.14535244 92.51371016 93.13053125 93.47322464 94.12116623 C94.7836506 95.47264272 96.11463041 96.80409898 97.4465332 98.13441467 C98.55482231 99.26074106 98.55482231 99.26074106 99.6855011 100.40982151 C102.64961313 102.44631727 104.47380136 102.38944732 108 102 C110.02243465 100.90929145 110.02243465 100.90929145 111.68530273 99.18139648 C112.36591766 98.53798309 113.04653259 97.8945697 113.74777222 97.23165894 C114.49100739 96.49521149 115.23424255 95.75876404 116 95 C116.82726593 94.196763 117.65453186 93.393526 118.50686646 92.56594849 C121.36994533 89.7629444 124.20526429 86.93405869 127.03515625 84.09765625 C128.08297946 83.05050864 129.1309509 82.00350934 130.17906189 80.95664978 C132.36326988 78.77390674 134.54568332 76.58938975 136.72680664 74.40356445 C139.50253881 71.62213576 142.28273782 68.84522224 145.06430912 66.06963444 C147.22559203 63.91198979 149.38445714 61.75193853 151.54263115 59.59118462 C152.56601321 58.5671423 153.59011961 57.54382326 154.6150074 56.52128792 C159.77617915 51.36936946 164.85012118 46.21727156 169.46141052 40.55735779 C171 39 171 39 173.06678772 38.03529358 C175.51707662 36.72308985 175.87035421 35.49145726 177 33 C178.44189453 31.31086731 178.44189453 31.31086731 180.1328125 29.62426758 C180.76687012 28.98713333 181.40092773 28.34999908 182.05419922 27.69355774 C182.73756348 27.017379 183.42092773 26.34120026 184.125 25.64453125 C184.8277002 24.94228928 185.53040039 24.2400473 186.25439453 23.51652527 C187.73819448 22.03574243 189.22442015 20.55738682 190.71289062 19.08129883 C192.99667851 16.8157949 195.27233549 14.54236337 197.546875 12.26757812 C198.9891117 10.83025577 200.43180452 9.39339091 201.875 7.95703125 C202.55836426 7.27477982 203.24172852 6.59252838 203.94580078 5.88960266 C204.5798584 5.2619249 205.21391602 4.63424713 205.8671875 3.98754883 C206.42519043 3.4333577 206.98319336 2.87916656 207.55810547 2.30818176 C210.66658944 -0.51203979 213.65430976 -0.33048685 217.67578125 -0.28515625 C221.25079353 0.1534587 223.3331253 1.65835392 226 4 C228.62719227 7.73802888 228.28194386 11.82158525 228.26069641 16.20977783 C228.26452196 17.04467924 228.26834751 17.87958065 228.27228898 18.73978209 C228.28262043 21.54175443 228.27862651 24.3435219 228.2746582 27.14550781 C228.27900469 29.15279836 228.28418762 31.16008725 228.29014587 33.16737366 C228.30355629 38.62413013 228.3041121 44.08081742 228.30158257 49.53758717 C228.30051391 54.09264617 228.30539374 58.64769111 228.310188 63.20274711 C228.32129098 73.95109337 228.32171662 84.69940468 228.31567383 95.44775391 C228.30963705 106.53354237 228.32193577 117.61920381 228.3432439 128.7049706 C228.36086505 138.22272782 228.3668603 147.74044464 228.36360615 157.25821757 C228.36179344 162.94259895 228.36442809 168.6268898 228.37832069 174.31125641 C228.39090213 179.65957655 228.38895181 185.00769903 228.37590981 190.35601616 C228.3735449 192.3167547 228.37627563 194.27750717 228.38453293 196.23822975 C228.39500966 198.91981087 228.3868922 201.60072995 228.3742218 204.2822876 C228.38159609 205.05390079 228.38897037 205.82551398 228.39656812 206.62050939 C228.3369063 212.64384347 227.23711984 218.26458897 223.31640625 223.05859375 C222.73761719 223.51363281 222.15882813 223.96867188 221.5625 224.4375 C220.98628906 224.91058594 220.41007813 225.38367188 219.81640625 225.87109375 C214.76208762 229.01237995 208.47927033 228.22124582 202.75 228.25 C201.73808594 228.270625 200.72617187 228.29125 199.68359375 228.3125 C192.68935406 228.34878659 186.61863926 227.94800341 180.9765625 223.3515625 C180.30753906 222.49691406 180.30753906 222.49691406 179.625 221.625 C178.93277344 220.77808594 178.93277344 220.77808594 178.2265625 219.9140625 C174.64810563 214.32984636 174.69560545 209.24251485 174.68115234 202.79370117 C174.66608391 201.25641861 174.66608391 201.25641861 174.65071106 199.68807983 C174.6198627 196.30638175 174.60283911 192.92476291 174.5859375 189.54296875 C174.56722721 187.19598203 174.5476539 184.84900204 174.5272522 182.50202942 C174.47591047 176.32894867 174.43629552 170.1558461 174.39910889 163.98266602 C174.35908215 157.6817484 174.30798371 151.38092169 174.2578125 145.08007812 C174.16102897 132.72011592 174.07663182 120.36010242 174 108 C169.85241692 112.12267842 165.7082716 116.24877227 161.56713867 120.37792969 C160.16082925 121.77924133 158.75361978 123.17965036 157.34545898 124.57910156 C155.30990344 126.60239038 153.27771469 128.62901128 151.24609375 130.65625 C150.62600937 131.2711731 150.00592499 131.88609619 149.36705017 132.51965332 C145.61032322 136.27590743 142.04827774 140.14998803 138.58530426 144.17899418 C134.37927861 149.01036781 129.81839522 153.52651231 125.32080078 158.08422852 C124.10065277 159.32613567 122.88681965 160.57427686 121.67919922 161.82836914 C119.9150913 163.65941121 118.13204173 165.46995104 116.34375 167.27734375 C115.81124634 167.83767807 115.27874268 168.39801239 114.73010254 168.97532654 C111.911901 171.77841686 110.27123421 172.92317717 106.34350586 174.03564453 C102.63430377 173.99610138 101.72189885 173.71911149 99.16015625 171.15234375 C98.49129395 170.50249512 97.82243164 169.85264648 97.13330078 169.18310547 C96.42931152 168.46268066 95.72532227 167.74225586 95 167 C94.24058105 166.26281738 93.48116211 165.52563477 92.69873047 164.76611328 C90.25397066 162.38827846 87.84324289 159.9797628 85.4375 157.5625 C84.62603516 156.75490234 83.81457031 155.94730469 82.97851562 155.11523438 C82.17994141 154.31537109 81.38136719 153.51550781 80.55859375 152.69140625 C79.85017334 151.98185791 79.14175293 151.27230957 78.41186523 150.54125977 C76.48382917 148.50978619 74.65340896 146.45002365 72.82948303 144.32749939 C69.15458324 140.11829362 65.28162786 136.15314206 61.31640625 132.21875 C60.61603745 131.51979614 59.91566864 130.82084229 59.19407654 130.10070801 C56.98591542 127.89808461 54.77427963 125.69898919 52.5625 123.5 C51.05250186 121.99502492 49.5427341 120.48981865 48.03320312 118.984375 C44.35812359 115.32024171 40.67992644 111.6592652 37 108 C36.99635437 109.31021118 36.99270874 110.62042236 36.98895264 111.97033691 C36.95198031 124.32955529 36.89418273 136.68852502 36.81609726 149.04755402 C36.77662104 155.4011792 36.74443303 161.75466574 36.72900391 168.10839844 C36.71383865 174.2423457 36.67939444 180.37591184 36.63169098 186.50968933 C36.61687602 188.84755639 36.60895892 191.18547787 36.60811615 193.52339172 C36.60574521 196.80311518 36.57865333 200.0817865 36.54589844 203.36132812 C36.55344398 204.80495224 36.55344398 204.80495224 36.56114197 206.27774048 C36.44871509 213.5738909 34.85006331 219.07290795 29.6875 224.375 C23.26252874 228.25986634 16.8154131 228.3383678 9.5 228.3125 C8.58863281 228.32861328 7.67726563 228.34472656 6.73828125 228.36132812 C-0.40358945 228.36648099 -5.27224267 227.36405636 -10.8125 222.5625 C-14.9710884 217.69101073 -15.2932525 213.9310394 -15.27415466 207.62490845 C-15.27939134 206.7722617 -15.28462802 205.91961495 -15.29002339 205.04113042 C-15.30504542 202.17922852 -15.30572902 199.31750506 -15.30639648 196.45556641 C-15.31401644 194.40562131 -15.32244365 192.35567908 -15.33161926 190.30574036 C-15.35358617 184.73343253 -15.36236602 179.16117957 -15.36744571 173.58883333 C-15.37108641 170.10857649 -15.37732495 166.62833408 -15.3844471 163.14808273 C-15.40894833 151.00984819 -15.42199514 138.87165644 -15.42553711 126.73339844 C-15.42917383 115.4134705 -15.45907739 104.09381345 -15.50094169 92.77396834 C-15.5356122 83.05921516 -15.55108498 73.34455191 -15.55178314 63.62973726 C-15.552577 57.82573398 -15.56136597 52.02200661 -15.58978081 46.21806717 C-15.61590603 40.75967889 -15.61819748 35.30179637 -15.60212517 29.84337425 C-15.60030632 27.83985862 -15.60704052 25.83631428 -15.62294388 23.83286095 C-15.6433325 21.09765856 -15.63289551 18.3642378 -15.61473083 15.62905884 C-15.6279308 14.83605617 -15.64113077 14.04305351 -15.65473074 13.22602046 C-15.56775513 7.49294576 -14.07994404 5.0291626 -10 1 C-6.53607831 -1.57000641 -4.08500962 -1.01577729 0 0 Z " fill="#FEFEFE" transform="translate(332,353)"/>
<path d="M0 0 C1.94613977 -0.00256327 1.94613977 -0.00256327 3.9315955 -0.00517833 C7.49376568 -0.00960593 11.05581336 -0.00171224 14.61796796 0.00837779 C18.47394423 0.01707698 22.3299145 0.01408759 26.18589783 0.01257324 C32.85370816 0.01152845 39.52147912 0.0177624 46.18927956 0.02904892 C55.8295971 0.0453563 65.46989574 0.05051727 75.11022558 0.0530249 C90.75392967 0.05739382 106.39761281 0.07068104 122.04130554 0.08963013 C137.23075761 0.10800978 152.42020397 0.12215606 167.60966492 0.13064575 C169.01589722 0.13143392 169.01589722 0.13143392 170.45053826 0.13223802 C175.15400242 0.13484824 179.85746662 0.13737562 184.56093085 0.13986182 C223.53332627 0.16056928 262.50569831 0.19577283 301.47807312 0.24050903 C301.50150604 7.88304031 301.51914271 15.52556776 301.52988529 23.16812706 C301.53504776 26.71896023 301.54202058 30.26976838 301.55351257 33.82058716 C301.60134532 48.98419399 301.63759643 64.11049456 300.47807312 79.24050903 C95.614131 79.4372412 95.614131 79.4372412 26.87811279 78.95136642 C23.30210736 78.92808413 19.72611486 78.91039234 16.15007019 78.89434814 C10.67071611 78.86909719 5.19166996 78.82953213 -0.28749275 78.77738571 C-2.21529758 78.76102781 -4.14314887 78.74927301 -6.0710125 78.74287796 C-19.01284432 78.69465301 -30.77902144 77.73034401 -42.52192688 71.74050903 C-43.19272278 71.40084106 -43.86351868 71.0611731 -44.55464172 70.71121216 C-54.40030148 65.45707173 -62.42629397 57.57110502 -68.52192688 48.24050903 C-68.19192688 47.58050903 -67.86192688 46.92050903 -67.52192688 46.24050903 C-67.19192688 46.57050903 -66.86192688 46.90050903 -66.52192688 47.24050903 C-66.53095032 46.53668091 -66.53997375 45.83285278 -66.54927063 45.10769653 C-66.21268392 33.89789552 -61.89806173 24.36615333 -54.20942688 16.24050903 C-39.11895517 2.52421182 -19.72206065 -0.09673029 0 0 Z " fill="#002663" transform="translate(250.5219268798828,690.7594909667969)"/>
<path d="M0 0 C2.8100346 1.79363911 4.50940468 3.01880935 6 6 C6.375 9.3125 6.375 9.3125 6 13 C3.05020446 16.57080513 0.89955225 18.78414179 -3.75 19.3125 C-7.80901885 18.92220973 -9.83301684 17.50412622 -13 15 C-14.55024464 11.89951072 -14.28992015 9.42105782 -14 6 C-10.26747896 0.27680107 -6.74763808 -0.96948823 0 0 Z " fill="#FCFCFC" transform="translate(699,317)"/>
<path d="M0 0 C3.49289951 2.58170833 4.77272316 4.30554299 6.125 8.4375 C6 12 6 12 4 15.375 C0.43765445 18.49205236 -1.29585283 19.0825289 -6 19 C-10.01519063 17.48483372 -11.60368353 16.5944747 -14 13 C-14.34061873 9.9830912 -14.57212107 7.90592185 -14 5 C-9.52139324 -0.53932942 -6.92988354 -1.64437915 0 0 Z " fill="#FAFAFA" transform="translate(699,572)"/>
<path d="M0 0 C3.62364079 0.8665228 5.09430301 2.48714036 7.15625 5.515625 C8.21875 8.953125 8.21875 8.953125 8.15625 12.515625 C5.21954114 17.98397943 5.21954114 17.98397943 2.15625 19.515625 C-4.97605769 20.21716346 -4.97605769 20.21716346 -8.78125 17.140625 C-11.75047736 13.36160836 -12.40061828 11.34181679 -11.84375 6.515625 C-8.73722808 1.10426423 -6.28084501 -0.4605953 0 0 Z " fill="#FCFCFC" transform="translate(696.84375,613.484375)"/>
<path d="M0 0 C3.62364079 0.8665228 5.09430301 2.48714036 7.15625 5.515625 C8.2910641 9.48747434 8.59348824 11.53183897 6.90625 15.328125 C5.15625 17.515625 5.15625 17.515625 2.15625 19.515625 C-2.36461206 19.8403278 -5.86449902 19.34798833 -9.34375 16.390625 C-11.18847738 12.85489751 -11.91406941 10.52383112 -11.84375 6.515625 C-8.8544095 1.03516742 -6.24815745 -0.45819821 0 0 Z " fill="#FCFCFC" transform="translate(696.84375,655.484375)"/>
<path d="M0 0 C3.4855894 2.63355644 4.7949595 4.28235825 6 8.5 C6 12.4426352 5.49535546 13.9883641 3 17 C0.36647362 19.0691993 -1.0381031 18.99930722 -4.4375 18.9375 C-8.73535664 17.80648509 -10.33457591 16.52776718 -13 13 C-14.02945529 9.70574308 -14.14210757 7.67895837 -13.4375 4.3125 C-10.25839646 -0.80171005 -5.50084938 -1.87262958 0 0 Z " fill="#FBFBFB" transform="translate(699,487)"/>
<path d="M0 0 C4.00079356 2.4449294 5.65936873 3.95918222 7.125 8.4375 C6.97177911 12.80429526 5.76736304 14.67916436 3 18 C-0.14911479 19.57455739 -2.52008816 19.34799118 -6 19 C-8.97672584 17.22719439 -11.42804007 15.14391985 -13 12 C-13.43023798 8.12785818 -13.31669086 6.47503629 -11.125 3.1875 C-7.57528033 -0.46662319 -5.03391038 -0.50339104 0 0 Z " fill="#FCFCFC" transform="translate(698,529)"/>
<path d="M0 0 C2.601315 1.80934556 3.34556004 3.11807233 5 6 C5.07144479 10.1437977 4.68996523 12.15423617 2.0625 15.375 C-1.41196541 18.11245759 -3.58820055 18.34602349 -8 18 C-10.80915461 16.72311154 -12.50106764 15.68900183 -14.3125 13.1875 C-15.24084633 10.23367076 -15.37765935 8.084218 -15 5 C-11.14277472 -0.98534957 -6.77721379 -2.11870179 0 0 Z " fill="#FBFBFB" transform="translate(700,445)"/>
<path d="M0 0 C3.40045198 0.850113 5.05309555 2.84439586 7.15625 5.5390625 C7.48625 5.8690625 7.81625 6.1990625 8.15625 6.5390625 C7.9244859 13.60786747 7.9244859 13.60786747 5.09375 17.0390625 C1.30326534 18.97462914 -1.66791678 19.39953722 -5.84375 18.5390625 C-8.6537846 16.74542339 -10.35315468 15.52025315 -11.84375 12.5390625 C-12.39733359 8.47944948 -11.97147011 6.76154269 -9.90625 3.1640625 C-6.97155357 -0.00474077 -4.19185747 -0.26548431 0 0 Z " fill="#FCFCFC" transform="translate(696.84375,401.4609375)"/>
<path d="M0 0 C5.57894737 3.15789474 5.57894737 3.15789474 7 6 C7.4375 9.3125 7.4375 9.3125 7 13 C4.43773463 16.01066181 2.83955295 17.59121046 -1.00390625 18.4453125 C-4.5004406 18.6443562 -6.86310729 18.07281527 -9.9375 16.4375 C-12.65361118 13.22755042 -13 11.17955847 -13 7 C-11.77175515 4.09099903 -10.73808187 2.53447308 -8.1875 0.6875 C-5.22019177 -0.24508259 -3.10315844 -0.37237901 0 0 Z " fill="#FCFCFC" transform="translate(698,274)"/>
<path d="M0 0 C3.23805586 2.2155119 3.8984844 3.65104012 5 7.4375 C5 11 5 11 3.1875 13.875 C0.20696853 16.77037343 -0.5580239 16.96377245 -4.8125 17.3125 C-7.92064005 17.25598836 -9.08429001 16.95516489 -11.9375 15.4375 C-14.69982153 12.17293819 -15.14716459 10.26777316 -15 6 C-11.38022954 -0.59210229 -7.05700009 -1.60949125 0 0 Z " fill="#FBFBFB" transform="translate(700,360)"/>
<path d="M0 0 C15.37051459 -0.11204255 30.66089646 -0.04627259 46 1 C46 1.33 46 1.66 46 2 C33.27624323 2.84601511 20.62213101 3.13996726 7.87255859 3.11352539 C5.92904156 3.11324248 3.98552442 3.11340327 2.04200745 3.1139679 C-3.17371206 3.11425183 -8.389408 3.10842105 -13.60512209 3.10139394 C-19.07833006 3.09509253 -24.55153872 3.09455128 -30.02474976 3.09336853 C-40.3620763 3.09027506 -50.69939211 3.08208872 -61.03671396 3.07201904 C-72.81683324 3.0607959 -84.59695308 3.0553319 -96.37707639 3.05032361 C-120.58472351 3.0399042 -144.79236115 3.02234364 -169 3 C-169 2.67 -169 2.34 -169 2 C-113.23 1.67 -57.46 1.34 0 1 C0 0.67 0 0.34 0 0 Z " fill="#023A96" transform="translate(428,250)"/>
<path d="M0 0 C7.33773432 -0.02335222 14.6754604 -0.04103011 22.0132246 -0.05181217 C25.42183448 -0.0569916 28.83041861 -0.06399741 32.23901367 -0.07543945 C36.17366204 -0.08856204 40.10830062 -0.09326897 44.04296875 -0.09765625 C45.24455124 -0.10281754 46.44613373 -0.10797882 47.68412781 -0.11329651 C55.5007048 -0.11380537 63.2161556 0.28774323 71 1 C71 1.33 71 1.66 71 2 C60.90375986 3.10233444 50.88866784 3.11736516 40.75 3.0625 C39.11849097 3.05747149 37.48698042 3.05291099 35.85546875 3.04882812 C31.9036077 3.03793757 27.95182108 3.02074866 24 3 C24 2.67 24 2.34 24 2 C16.08 1.67 8.16 1.34 0 1 C0 0.67 0 0.34 0 0 Z " fill="#1F448C" transform="translate(560,689)"/>
<path d="M0 0 C15.37051459 -0.11204255 30.66089646 -0.04627259 46 1 C46 1.33 46 1.66 46 2 C30.12942171 3.18674785 14.28184587 3.11508625 -1.625 3.0625 C-4.28906165 3.0568935 -6.95312272 3.05291211 -9.6171875 3.04882812 C-16.07814548 3.03792362 -22.5390683 3.02128259 -29 3 C-29 2.67 -29 2.34 -29 2 C-19.43 1.67 -9.86 1.34 0 1 C0 0.67 0 0.34 0 0 Z " fill="#0F3886" transform="translate(428,250)"/>
<path d="M0 0 C0.33 0 0.66 0 1 0 C1.08103404 2.91722548 1.14051081 5.83219516 1.1875 8.75 C1.22520508 9.9875 1.22520508 9.9875 1.26367188 11.25 C1.33834499 17.42297754 1.33834499 17.42297754 -0.51171875 20.578125 C-1.24841797 21.28195312 -1.24841797 21.28195312 -2 22 C-2.25515919 14.47280398 -1.28297723 7.41148455 0 0 Z " fill="#091B4E" transform="translate(183,610)"/>
<path d="M0 0 C1.32 0.33 2.64 0.66 4 1 C4.64196266 4.68651822 5.15094565 8.25331341 5 12 C2.5625 14.6875 2.5625 14.6875 0 16 C-0.66 15.67 -1.32 15.34 -2 15 C-1.34 14.484375 -0.68 13.96875 0 13.4375 C2.31615264 11.06896889 2.31615264 11.06896889 2.375 7.5 C2.04142937 4.38667416 1.66128628 2.59575981 0 0 Z " fill="#0C1E53" transform="translate(702,276)"/>
<path d="M0 0 C0 3.58912412 -0.66436554 4.10857029 -3 6.6875 C-3.556875 7.31011719 -4.11375 7.93273437 -4.6875 8.57421875 C-5.120625 9.04472656 -5.55375 9.51523437 -6 10 C-5.34 10.33 -4.68 10.66 -4 11 C-4.99 11.33 -5.98 11.66 -7 12 C-7.66 11.67 -8.32 11.34 -9 11 C-7.59155282 7.78475695 -5.89655214 5.67816132 -3.375 3.25 C-2.74335938 2.63640625 -2.11171875 2.0228125 -1.4609375 1.390625 C-0.73777344 0.70226562 -0.73777344 0.70226562 0 0 Z " fill="#222F66" transform="translate(484,482)"/>
<path d="M0 0 C2.87796462 1.29012207 5.06038054 2.48079011 7 5 C6.92578125 7.2265625 6.92578125 7.2265625 6.3125 9.625 C6.12300781 10.42164063 5.93351563 11.21828125 5.73828125 12.0390625 C5 14 5 14 3 15 C3.11859375 14.41992188 3.2371875 13.83984375 3.359375 13.2421875 C4.30861415 7.55616062 4.30861415 7.55616062 2.0625 2.4375 C1.381875 1.633125 0.70125 0.82875 0 0 Z " fill="#061039" transform="translate(700,445)"/>
<path d="M0 0 C0.33 0 0.66 0 1 0 C1.09796875 0.60328125 1.1959375 1.2065625 1.296875 1.828125 C2.20946904 6.70578282 2.87595723 9.83823388 7 13 C5.02 13 3.04 13 1 13 C-0.10228696 8.59085217 -0.07654536 4.51617599 0 0 Z " fill="#03103C" transform="translate(684,407)"/>
<path d="M0 0 C0.825 0.495 1.65 0.99 2.5 1.5 C6.75488188 3.32352081 9.42308671 3.23673689 14 3 C13.67 3.66 13.34 4.32 13 5 C8.48382401 5.07654536 4.40914783 5.10228696 0 4 C0 2.68 0 1.36 0 0 Z " fill="#081441" transform="translate(686,332)"/>
<path d="M0 0 C0.33 0 0.66 0 1 0 C1 2.64 1 5.28 1 8 C1.66 8.33 2.32 8.66 3 9 C2.01 9.495 2.01 9.495 1 10 C0.34444881 12.52733235 0.34444881 12.52733235 0 15 C-0.33 15 -0.66 15 -1 15 C-1.09038099 9.84828377 -0.84681133 5.08086796 0 0 Z " fill="#010B43" transform="translate(189,565)"/>
<path d="M0 0 C1.24546405 2.49092811 0.7767578 3.41080733 0 6 C-1.65 6 -3.3 6 -5 6 C-3.35 4.02 -1.7 2.04 0 0 Z " fill="#001A59" transform="translate(504,462)"/>
</g>
</svg>
